<?xml version="1.0" encoding="utf-8"?>
<!-- Generator: Adobe Illustrator 15.1.0, SVG Export Plug-In  -->
<!DOCTYPE svg PUBLIC "-//W3C//DTD SVG 1.1//EN" "http://www.w3.org/Graphics/SVG/1.1/DTD/svg11.dtd" [
	<!ENTITY ns_flows "http://ns.adobe.com/Flows/1.0/">
]>
<svg version="1.1"
	 xmlns="http://www.w3.org/2000/svg" xmlns:xlink="http://www.w3.org/1999/xlink" xmlns:a="http://ns.adobe.com/AdobeSVGViewerExtensions/3.0/"
	 x="0px" y="0px" width="24px" height="22px" viewBox="11.999 14.998 24 22"
	 overflow="visible" enable-background="new 11.999 14.998 24 22" xml:space="preserve">
<defs>
</defs>
<path d="M26.909,26.45v1.806c0.329,0.144,0.705,0.309,1.126,0.494c0.422,0.185,0.856,0.375,1.304,0.571s0.901,0.39,1.358,0.587
	c0.458,0.195,0.894,0.377,1.305,0.549c0.411,0.168,0.781,0.319,1.11,0.454c0.33,0.135,0.597,0.236,0.803,0.308
	c0.432,0.155,0.782,0.389,1.05,0.704c0.267,0.313,0.478,0.633,0.633,0.964c0.184,0.381,0.319,0.782,0.401,1.204v1.96h-24v-1.96
	c0.092-0.422,0.231-0.823,0.416-1.204c0.154-0.331,0.365-0.65,0.633-0.964c0.268-0.315,0.612-0.549,1.034-0.704
	c0.216-0.071,0.5-0.176,0.849-0.316c0.351-0.139,0.741-0.299,1.173-0.478c0.432-0.18,0.888-0.373,1.366-0.579
	c0.478-0.206,0.955-0.411,1.427-0.617c0.474-0.207,0.921-0.4,1.343-0.586c0.423-0.187,0.793-0.351,1.112-0.494v-1.76
	c-0.02-0.082-0.054-0.208-0.1-0.379c-0.047-0.17-0.095-0.342-0.147-0.518c-0.061-0.204-0.134-0.426-0.216-0.663
	c-0.298-0.556-0.535-1.185-0.71-1.89s-0.263-1.454-0.263-2.246c0-1.04,0.111-1.92,0.332-2.639c0.221-0.722,0.522-1.308,0.903-1.76
	c0.38-0.453,0.825-0.782,1.335-0.988c0.509-0.207,1.057-0.309,1.644-0.309c0.577,0,1.119,0.1,1.628,0.301
	c0.51,0.201,0.957,0.524,1.343,0.972c0.386,0.448,0.689,1.035,0.911,1.761c0.222,0.724,0.332,1.613,0.332,2.662
	c0,0.772-0.085,1.504-0.254,2.199c-0.17,0.695-0.404,1.319-0.702,1.877c-0.083,0.255-0.16,0.497-0.231,0.723
	c-0.062,0.197-0.119,0.385-0.17,0.563C26.934,26.237,26.909,26.369,26.909,26.45z"/>
<rect display="none" opacity="0.13" fill="#EA008A" width="48" height="47.998"/>
<rect x="12" y="11.998" display="none" opacity="0.1" fill="#EA008A" width="24.001" height="24"/>
</svg>
